<svg width="34" height="22" viewBox="0 0 34 22" fill="none" xmlns="http://www.w3.org/2000/svg">
<path d="M27.9065 21.4373C27.002 21.5678 26.0799 21.4985 25.205 21.2342C24.3302 20.9699 23.5239 20.5172 22.8429 19.9077C22.1619 19.2983 21.6228 18.547 21.2634 17.7067C20.9041 16.8665 20.7333 15.9577 20.763 15.0443L0.0247498 7.07469L9.41463 0.35791L27.6683 8.95567C29.1998 9.10759 30.6224 9.81611 31.6663 10.9469C32.7103 12.0778 33.3031 13.5523 33.3324 15.091C33.3617 16.6298 32.8254 18.1258 31.8252 19.2955C30.825 20.4652 29.4305 21.2274 27.9059 21.4375L27.9065 21.4373Z" fill="#FFB7B7"/>
</svg>
