<svg width="45" height="40" viewBox="0 0 45 40" fill="none" xmlns="http://www.w3.org/2000/svg">
<path d="M44.1714 37.0149V21.4844C44.1728 18.7506 43.6355 16.0434 42.5903 13.5173C41.5451 10.9912 40.0124 8.69585 38.0799 6.7623C36.1473 4.82875 33.8527 3.29492 31.3271 2.24844C28.8016 1.20196 26.0946 0.66333 23.3608 0.66333C20.6271 0.66333 17.9201 1.20196 15.3945 2.24844C12.869 3.29492 10.5744 4.82875 8.64184 6.7623C6.70926 8.69585 5.17657 10.9912 4.13135 13.5173C3.08614 16.0434 2.54886 18.7506 2.55023 21.4844C-1.11761 29.1276 1.17702 32.7614 2.55023 37.0149C2.55147 37.7556 2.84628 38.4656 3.37003 38.9893C3.89378 39.5131 4.60377 39.8078 5.34446 39.8091H41.3759C42.1168 39.8082 42.8271 39.5136 43.3512 38.9898C43.8752 38.466 44.1702 37.7558 44.1714 37.0149Z" fill="#2F2E41"/>
</svg>
