<svg width="18" height="33" viewBox="0 0 18 33" fill="none" xmlns="http://www.w3.org/2000/svg">
<path d="M7.0421 30.8731C6.36233 30.2624 5.82463 29.5101 5.46688 28.6693C5.10913 27.8284 4.94 26.9194 4.97139 26.0061C5.00278 25.0929 5.23394 24.1976 5.64859 23.3833C6.06324 22.569 6.65132 21.8554 7.37142 21.2929L0.197556 0.266357L11.3744 3.16969L16.4679 22.6907C17.3334 23.9636 17.7018 25.5098 17.5031 27.0362C17.3044 28.5626 16.5526 29.963 15.3901 30.972C14.2276 31.9809 12.7352 32.5282 11.1961 32.5101C9.65689 32.492 8.17789 31.9097 7.03945 30.8737L7.0421 30.8731Z" fill="#FFB7B7"/>
</svg>
