<svg width="4" height="6" viewBox="0 0 4 6" fill="none" xmlns="http://www.w3.org/2000/svg">
<path d="M2.40612 5.40924C2.45863 4.98703 2.42432 4.55854 2.30528 4.15007C2.28557 3.59741 2.43209 3.05155 2.72589 2.58304C3.01773 2.14106 3.23888 1.65627 3.38134 1.14615C3.44136 0.913717 3.4304 0.668635 3.34988 0.442484C3.25871 0.237655 3.03786 0.144236 2.91118 0.306426L3.18227 0.481037C2.81622 0.415716 2.44016 0.433931 2.08213 0.534312C1.87787 0.612498 1.69544 0.738732 1.5503 0.902341C1.40516 1.06595 1.3016 1.26212 1.24832 1.47424C1.20354 1.80498 1.13037 2.13126 1.02964 2.44946C0.867916 2.78188 0.554905 2.89242 0.358183 3.18418C0.224035 3.44281 0.156333 3.73075 0.16116 4.02206C0.165988 4.31338 0.243197 4.59891 0.385841 4.85296C0.632872 5.26849 1.02556 5.57733 1.48762 5.71943C1.8187 5.83825 2.25464 5.84452 2.40612 5.40924Z" fill="#00B0FF"/>
</svg>
