<svg width="5" height="8" viewBox="0 0 5 8" fill="none" xmlns="http://www.w3.org/2000/svg">
<path d="M1.08011 4.95327C1.27691 5.13443 1.46053 5.32938 1.62961 5.53664C1.80462 5.83836 1.89396 6.18212 1.88801 6.53087C1.88207 6.87962 1.78108 7.22014 1.59589 7.51573C1.85007 7.50126 2.09849 7.43423 2.32544 7.31888C2.5524 7.20353 2.75296 7.04236 2.91447 6.84556C3.2996 6.40694 3.63836 5.92969 3.92542 5.42144C4.06041 5.24738 4.15683 5.04659 4.20822 4.8324C4.25962 4.61821 4.26484 4.39554 4.22354 4.17917C4.12384 3.89468 3.88813 3.77335 3.72288 3.55938C3.4938 3.14106 3.33743 2.68686 3.26044 2.21618C3.16881 1.77502 2.95597 1.36816 2.64583 1.04132C2.33569 0.71447 1.94053 0.480593 1.50478 0.365967L1.61054 0.386192C1.43053 0.493005 1.28843 0.653454 1.20418 0.84506C1.11992 1.03667 1.09771 1.24984 1.14066 1.45469C1.20472 1.86856 1.47067 2.21217 1.4442 2.63429C1.40615 3.24128 0.799539 3.52611 0.762058 4.13317C0.756163 4.43772 0.870436 4.73233 1.08011 4.95327Z" fill="#00B0FF"/>
</svg>
