<svg width="5" height="4" viewBox="0 0 5 4" fill="none" xmlns="http://www.w3.org/2000/svg">
<path d="M4.09758 3.48751C4.35104 3.26512 4.5385 2.97736 4.63952 2.65566C4.74055 2.33395 4.75125 1.99067 4.67043 1.6633C4.51716 0.973137 3.97462 0.509097 3.47417 0.63656C3.32899 0.783744 3.14876 0.891602 2.95045 0.94999C2.75213 1.00838 2.54223 1.01538 2.34046 0.970343C2.03108 0.890683 1.69142 0.685553 1.42308 0.918679C1.26957 1.09276 1.16211 1.30254 1.11057 1.52884C1.01126 1.83375 0.911932 2.13862 0.812583 2.44345C0.765425 2.55259 0.753128 2.67365 0.777364 2.79006C0.796385 2.83671 0.827093 2.87766 0.866528 2.90902C0.905962 2.94037 0.952818 2.96106 1.00255 2.96907C1.59849 3.14476 2.19439 3.32042 2.79027 3.49608C2.99547 3.59062 3.21896 3.63887 3.44488 3.63739C3.67081 3.6359 3.89364 3.58474 4.09758 3.48751Z" fill="#00B0FF"/>
</svg>
