<svg width="267" height="217" viewBox="0 0 267 217" fill="none" xmlns="http://www.w3.org/2000/svg">
<path d="M227.386 207.524C222.645 205.344 217.532 202.775 212.045 199.818C183.669 184.521 148.776 160.657 113.792 132.623C78.8087 104.589 47.9148 75.7336 26.8014 51.3733C16.5166 39.5064 9.1082 29.3437 4.78251 21.1671C0.202518 12.5107 -0.72114 6.37631 2.03662 2.93477C7.40947 -3.76981 24.9068 2.26909 38.6392 8.5158L38.1374 9.61937C19.2792 1.04093 6.79439 -1.06366 2.98274 3.69299C-1.8722 9.75118 7.14346 26.8404 27.7176 50.5793C48.7845 74.8861 79.6221 103.687 114.55 131.677C149.478 159.666 184.307 183.487 212.621 198.751C240.271 213.658 258.915 218.733 263.77 212.675C267.801 207.645 262.302 194.976 248.288 177.002L249.244 176.256C259.427 189.317 270.377 206.368 264.716 213.433C261.958 216.875 255.77 217.31 246.324 214.726C240.939 213.253 234.602 210.842 227.386 207.524Z" fill="#00B0FF"/>
</svg>
