<svg width="119" height="119" viewBox="0 0 119 119" fill="none" xmlns="http://www.w3.org/2000/svg">
<path d="M118.66 59.7324C118.631 74.5377 113.064 88.7965 103.055 99.7058C93.046 110.615 79.3179 117.386 64.5698 118.686C49.8218 119.987 35.1206 115.724 23.3565 106.735C11.5924 97.7456 3.61635 84.6811 0.996433 70.1094C-1.62348 55.5378 1.30227 40.5131 9.19847 27.9893C17.0947 15.4654 29.3901 6.34831 43.6676 2.43033C57.9451 -1.48765 73.1717 0.076923 86.3541 6.81647C99.5365 13.556 109.721 24.983 114.905 38.8509C115.035 39.1991 115.161 39.5473 115.283 39.8989V39.9023C115.831 41.4478 116.313 43.0221 116.73 44.6251C118.015 49.5578 118.664 54.6349 118.66 59.7324Z" fill="#3F3D56"/>
</svg>
