<svg width="61" height="53" viewBox="0 0 61 53" fill="none" xmlns="http://www.w3.org/2000/svg">
<path d="M52.4082 26.1972C53.4364 26.4393 54.4645 26.6814 55.4927 26.9235C55.3136 30.396 53.5922 33.6099 51.2839 34.774C50.3221 35.2582 49.2508 35.4373 48.4548 36.3428C47.7351 37.1653 47.3702 38.4455 47.0352 39.6693C46.4482 41.8052 45.8612 43.9411 45.2741 46.077C44.644 48.3787 43.8347 50.9359 42.1963 51.7651C40.79 52.4781 39.1815 51.6058 38.1003 50.1432C37.019 48.6806 36.3591 46.7138 35.7189 44.7968C35.7588 46.8863 34.787 48.936 33.4106 49.6623C32.0309 50.3886 30.3526 49.732 29.4306 48.1102C28.7673 46.946 28.492 45.4104 27.8419 44.2297C27.1919 43.049 25.8288 42.3724 25.119 43.4801C24.6513 44.2164 24.711 45.3441 24.4788 46.2794C24.362 46.9003 24.0545 47.4694 23.5992 47.9075C23.1439 48.3456 22.5633 48.6309 21.9384 48.7237C21.3636 48.7105 20.7976 48.5805 20.2748 48.3416C19.7519 48.1027 19.2832 47.7599 18.897 47.334C16.866 45.2565 15.5438 42.59 15.1194 39.7158C14.8316 38.3377 14.868 36.9117 15.2255 35.5501C15.6335 34.26 16.6185 33.265 17.5969 33.5104C18.2403 32.1505 16.9701 30.3463 15.8258 30.5055C14.6782 30.6647 13.7795 31.8951 12.8376 32.8404C11.899 33.7856 10.5856 34.4722 9.64032 33.5335C9.66146 33.8769 9.54533 34.2145 9.31752 34.4722C9.0897 34.7299 8.76884 34.8866 8.42552 34.9077C8.39157 34.9098 8.35762 34.9106 8.32363 34.91C7.69511 34.7295 7.11111 34.42 6.60894 34.0012C4.44319 32.6513 1.69365 33.5468 0.15477 36.1006C1.11661 32.0079 2.52612 27.3116 5.48123 26.3497C6.68855 25.955 8.00525 26.2801 9.14614 25.5968C11.166 24.3863 11.5739 19.8126 9.82937 17.9255C10.0516 19.7098 10.0085 21.7927 9.06655 23.0132C8.12463 24.2338 6.1479 23.4377 6.26734 21.6335C6.24052 21.8873 6.1341 22.126 5.96329 22.3156C5.79247 22.5052 5.56603 22.6358 5.31643 22.6889C5.06682 22.7419 4.80685 22.7145 4.57373 22.6107C4.34062 22.5069 4.14632 22.332 4.01868 22.1111C3.39185 21.1559 3.44494 19.5938 3.88936 18.4529C4.34752 17.4195 5.00451 16.4864 5.82292 15.7067C7.39833 14.0186 8.99695 12.3105 10.8211 11.2491C12.6486 10.1878 14.758 9.82967 16.5887 10.8844C17.5539 11.4415 18.403 12.3702 19.388 12.861C19.6195 13.0047 19.8769 13.1013 20.1458 13.1454C20.4146 13.1895 20.6894 13.1803 20.9547 13.1181C21.2199 13.056 21.4703 12.9423 21.6916 12.7834C21.9129 12.6245 22.1007 12.4236 22.2443 12.1921C22.2554 12.1742 22.2662 12.1562 22.2768 12.138C23.0097 10.8511 22.6648 8.94075 22.9368 7.33221C23.4243 4.48989 26.2666 3.15992 27.842 5.03711C26.6647 4.73532 25.4474 6.12828 25.3015 7.81648C25.1523 9.50462 26.0047 11.2094 27.1455 11.7202C29.0626 12.5692 30.9398 10.4332 32.3892 8.45656C33.9015 6.38697 35.4161 4.31851 36.9329 2.25117C37.1751 1.89916 37.4469 1.56851 37.7454 1.26281C38.2205 0.799761 38.8538 0.534599 39.517 0.521053C40.1803 0.507508 40.8239 0.746584 41.3175 1.18985C42.8497 2.44019 43.5695 5.00398 44.8265 6.76839C46.6506 9.33214 49.3802 9.95566 51.9207 10.4532C53.8145 10.8213 55.7094 11.1917 57.6054 11.5642C58.8693 13.9155 59.9718 16.35 60.9055 18.8509C57.4286 20.4363 54.4795 22.9859 52.4082 26.1972Z" fill="#00B0FF"/>
</svg>
