<svg width="5" height="7" viewBox="0 0 5 7" fill="none" xmlns="http://www.w3.org/2000/svg">
<path d="M4.08489 3.82249C3.80943 3.37149 3.53395 2.9205 3.25849 2.46951C2.98792 1.94723 2.61803 1.48278 2.16954 1.1022C2.0724 1.02083 1.96021 0.959376 1.83933 0.921369C1.71845 0.883363 1.59125 0.869548 1.46503 0.880695C1.33881 0.891843 1.216 0.927732 1.10365 0.986336C0.991303 1.04494 0.891623 1.12511 0.810255 1.22225L0.795868 1.23979L0.829396 1.49739C1.56702 2.28814 2.06966 3.26884 2.28087 4.32938C2.34367 4.79028 2.32183 5.26727 2.37689 5.7302C2.38271 5.94484 2.43078 6.15622 2.51834 6.35227C2.60591 6.54832 2.73128 6.72519 2.88725 6.87276C3.321 7.16252 3.8303 6.73529 4.13899 6.21395C4.41495 5.78574 4.53875 5.27712 4.49045 4.76999C4.42165 4.42969 4.28361 4.10718 4.08489 3.82249Z" fill="#00B0FF"/>
</svg>
