<svg width="34" height="56" viewBox="0 0 34 56" fill="none" xmlns="http://www.w3.org/2000/svg">
<path d="M31.8606 33.4036C30.9419 34.7834 29.7148 35.649 28.6137 36.7269C27.3425 37.8832 26.5086 39.4422 26.2523 41.1413C26.113 42.342 26.3285 43.5624 26.2987 44.7764C26.2689 45.9902 25.8642 47.3567 25.0384 47.6585C23.7349 48.1294 22.7399 45.7083 21.4001 45.5392C20.3354 45.4065 19.3769 47.0814 19.6853 48.5341C19.9938 49.9868 21.4432 50.6302 22.2756 49.6816C23.0285 50.9453 22.4978 53.2371 21.3669 53.6251C21.2474 54.4211 21.1281 55.2138 21.012 56.0098C18.153 54.0098 15.2643 51.9768 12.8332 49.0482C10.1294 45.8187 8.45241 41.8549 8.01745 37.6655C7.70237 34.2991 8.17001 30.4485 6.62451 27.8583C5.38735 25.7854 3.2647 25.3277 1.35433 25.457C1.00609 25.4802 0.654551 25.52 0.306274 25.5631C1.4329 22.1794 2.86381 18.9046 4.5814 15.7791C4.9701 15.6122 5.33127 15.3874 5.65264 15.1124C7.43038 13.6033 8.21974 10.5487 9.66244 8.43602C9.75533 8.30003 9.85151 8.16737 9.95098 8.03805C11.4269 6.11106 13.4036 5.11939 15.314 4.19736C19.5427 2.14438 23.8941 0.0648649 28.3583 0.350081L27.088 0.472789C25.6055 4.62521 24.1218 8.77764 22.6371 12.9301C22.4115 13.5668 22.1838 14.2047 21.9539 14.8438C21.1114 17.2052 20.2425 19.7192 20.3719 22.3626C20.4482 23.928 20.992 25.5996 22.0268 26.1369C22.992 26.6344 24.0467 26.0241 24.9786 25.4205C25.3733 25.1684 25.7647 24.9163 26.1593 24.661C27.5755 23.7489 29.1443 22.8136 30.6401 23.4238C32.0099 23.981 33.0214 25.8417 33.2138 27.8482C33.3902 29.7988 32.9143 31.7527 31.8606 33.4036Z" fill="#00B0FF"/>
</svg>
