<svg width="413" height="163" viewBox="0 0 413 163" fill="none" xmlns="http://www.w3.org/2000/svg">
<path d="M98.1638 81.6887C81.2587 73.9153 65.8097 66.1082 52.2786 58.4678C34.5924 48.4808 21.151 39.3193 12.3279 31.2389C2.98667 22.6831 -0.80448 15.6115 1.05975 10.2205C4.69093 -0.28173 28.6312 -0.528925 48.0752 1.11302L47.9431 2.67587C21.2416 0.420736 5.11785 3.28205 2.54137 10.7333C-0.740071 20.2233 17.6695 37.1239 53.0496 57.1021C89.2772 77.5588 139.36 99.2443 194.075 118.162C248.788 137.082 301.569 150.965 342.695 157.256C382.859 163.399 407.776 161.48 411.058 151.99C413.782 144.111 401.578 131.067 376.695 115.26L377.536 113.936C395.616 125.422 416.366 141.435 412.539 152.502C410.675 157.893 403.326 161.113 390.695 162.071C378.765 162.975 362.535 161.877 342.458 158.806C301.241 152.501 248.363 138.593 193.562 119.645C159.185 107.757 126.619 94.774 98.1638 81.6887Z" fill="#00B0FF"/>
</svg>
