<svg width="5" height="7" viewBox="0 0 5 7" fill="none" xmlns="http://www.w3.org/2000/svg">
<path d="M1.07923 5.66009C1.26468 5.84134 1.49911 5.9644 1.75362 6.01407C2.00813 6.06374 2.2716 6.03786 2.51159 5.93964C3.00856 5.72237 3.46447 5.42125 3.85936 5.04942C4.18633 4.80748 4.46369 4.5049 4.67635 4.15816C4.79349 3.95095 4.86856 3.72264 4.89723 3.48634C4.92591 3.25004 4.90765 3.01041 4.84348 2.78119C4.75215 2.56159 4.60634 2.3689 4.4198 2.22134C4.23326 2.07379 4.01217 1.97622 3.77744 1.9379C3.11599 1.74172 2.45456 1.54559 1.79311 1.34948L2.2716 0.918224C1.77931 0.654024 1.23469 1.14436 0.926993 1.75142C0.72967 2.14781 0.592111 2.57123 0.518816 3.00792C0.414163 3.46418 0.410079 3.93774 0.506853 4.39573C0.603628 4.85373 0.798944 5.28517 1.07923 5.66009Z" fill="#00B0FF"/>
</svg>
