<svg width="15" height="15" viewBox="0 0 15 15" fill="none" xmlns="http://www.w3.org/2000/svg">
<path d="M14.5307 4.10289C13.1098 6.9881 11.4571 9.75328 9.58891 12.3712C8.39494 11.8604 7.11142 12.7725 5.9937 13.6282C4.82623 14.5237 3.42331 15.396 2.226 14.58C1.0022 13.7443 0.607494 11.4061 0.99554 9.55203C1.44153 7.84175 2.22156 6.23664 3.29064 4.82916C4.28564 3.34331 5.35022 1.80106 6.7333 1.22398C8.11967 0.646897 9.90069 1.46278 10.3053 3.43288L11.287 3.39969C10.7365 2.64352 11.0251 1.07806 11.7647 0.802784C12.617 0.481091 13.3567 1.6518 13.8607 2.68665C14.0863 3.15428 14.3151 3.62528 14.5307 4.10289Z" fill="#00B0FF"/>
</svg>
