<svg width="25" height="24" viewBox="0 0 25 24" fill="none" xmlns="http://www.w3.org/2000/svg">
<path d="M24.429 2.45395C21.7461 1.00313 18.7673 0.18415 15.7199 0.0594691C12.6724 -0.0652118 9.63672 0.507701 6.84431 1.73451C4.38566 2.80452 1.79676 4.724 0.976578 8.19021C4.29382 6.2325 8.58787 9.32566 9.44148 14.2878L9.24226 14.3427C8.79142 17.7797 9.79785 21.5216 11.7464 23.6527C11.8913 22.6911 12.2485 21.7738 12.7922 20.9675C13.3359 20.1612 14.0523 19.4862 14.8894 18.9913C16.3211 18.0502 17.9048 17.3666 18.9976 15.7489C20.293 13.8311 20.622 11.0283 21.1366 8.47143C21.6513 5.91457 22.6275 3.1664 24.429 2.45395Z" fill="#00B0FF"/>
</svg>
