<svg width="26" height="41" viewBox="0 0 26 41" fill="none" xmlns="http://www.w3.org/2000/svg">
<path d="M24.9315 17.0937C22.8214 17.2264 21.1499 14.6287 20.0392 12.0731C18.9285 9.51756 17.9151 6.5951 16.0111 5.29431C14.9231 4.55103 13.6828 4.44907 12.5028 4.08886C11.8335 3.91981 11.2141 3.5937 10.696 3.13753C10.1779 2.68136 9.77594 2.10826 9.52349 1.46576L8.18491 0.925049C6.31253 1.86099 4.59783 3.08362 3.10278 4.54876C1.39434 6.36354 0.330249 8.68989 0.074524 11.1692C-0.181166 13.8484 0.763032 16.836 2.52732 17.8425C3.92137 18.6378 5.54442 18.1365 6.95649 18.8645C8.72077 19.7741 9.76821 22.4166 10.1647 25.0256C10.5612 27.6346 10.4607 30.346 10.7444 32.9846C11.0281 35.6232 11.8099 38.3688 13.4278 39.721C15.4525 41.4131 18.4235 40.007 19.3319 36.9268C19.7774 35.4159 19.7621 33.711 20.0953 32.1426C20.6822 29.3806 22.2659 27.3315 23.522 25.0658C24.7781 22.8002 25.7669 19.7231 24.9315 17.0937Z" fill="#00B0FF"/>
</svg>
